<svg xmlns="http://www.w3.org/2000/svg" aria-hidden="true" overflow="hidden" style="position:absolute;width:0;height:0">
  <defs>
    <symbol id="icon-arrow" viewBox="0 0 43 32">
      <path d="m5.789 15.997 11.89-11.89a2.378 2.378 0 0 0 0-3.411c-.937-.937-2.426-.937-3.387 0L.697 14.291a2.392 2.392 0 0 0 0 3.387l13.595 13.595c.961.961 2.45.961 3.387 0 .961-.961.961-2.45 0-3.387l-11.89-11.89z"/>
      <path d="m8.191 13.595 9.488-9.488a2.378 2.378 0 0 0 0-3.411c-.937-.937-2.426-.937-3.387 0L.697 14.291a2.392 2.392 0 0 0 0 3.387l13.595 13.595c.961.961 2.45.961 3.387 0 .961-.961.961-2.45 0-3.387l-9.488-9.488H42.66v-4.804H8.191z"/>
    </symbol>
    <symbol id="icon-facebook" viewBox="0 0 32 32">
      <path d="M0 16C0 7.16 7.16 0 16 0c8.83 0 16 7.16 16 16 0 8.83-7.17 16-16 16-8.84 0-16-7.17-16-16zm17.66 9.4v-8.7h2.41l.31-3h-2.72l.01-1.5c0-.79.07-1.2 1.19-1.2h1.51V8h-2.41c-2.88 0-3.9 1.45-3.9 3.9v1.8h-1.8v3h1.8v8.7h3.6z"/>
    </symbol>
    <symbol id="icon-instagram" viewBox="0 0 32 32">
      <path d="M0 16C0 7.16 7.16 0 16 0c8.83 0 16 7.16 16 16 0 8.83-7.17 16-16 16-8.84 0-16-7.17-16-16zm16-8.54c-2.32 0-2.61.01-3.52.05s-1.53.19-2.07.4c-.57.22-1.04.51-1.52.98-.47.48-.76.95-.98 1.52-.21.54-.36 1.16-.4 2.07s-.05 1.2-.05 3.52c0 2.31.01 2.6.05 3.51.05.91.19 1.53.4 2.07.22.57.51 1.04.98 1.52.48.47.95.76 1.52.98.54.21 1.16.36 2.07.4s1.2.05 3.51.05c2.32 0 2.61-.01 3.52-.05s1.53-.19 2.07-.4c.57-.22 1.04-.51 1.52-.98.47-.48.76-.95.98-1.52.21-.54.35-1.16.4-2.07.04-.91.05-1.2.05-3.51 0-2.32-.01-2.61-.05-3.52-.05-.91-.19-1.53-.4-2.07-.22-.57-.51-1.04-.98-1.52-.48-.47-.95-.76-1.52-.98-.54-.21-1.16-.36-2.07-.4s-1.2-.05-3.52-.05H16z"/>
      <path d="M15.23 9H16c2.27 0 2.54.01 3.44.05.84.04 1.29.18 1.59.29.4.16.68.34.98.64s.48.58.64.98c.11.3.25.75.29 1.59.04.9.05 1.17.05 3.44 0 2.28-.01 2.55-.05 3.45-.04.83-.18 1.28-.29 1.59-.16.39-.34.68-.64.97-.3.3-.58.49-.98.64-.3.12-.75.26-1.59.3-.9.04-1.17.05-3.44.05-2.28 0-2.55-.01-3.45-.05-.83-.04-1.29-.18-1.59-.3-.4-.15-.68-.34-.98-.64-.3-.29-.48-.58-.64-.98-.11-.3-.25-.75-.29-1.58-.04-.9-.05-1.17-.05-3.45s.01-2.55.05-3.45c.04-.83.18-1.28.29-1.58.16-.4.34-.68.64-.98s.58-.48.98-.64c.3-.12.76-.26 1.59-.29.78-.04 1.09-.05 2.68-.05zm5.32 1.42c-.56 0-1.02.45-1.02 1.02s.46 1.02 1.02 1.02c.57 0 1.02-.45 1.02-1.02s-.45-1.02-1.02-1.02zM16 11.61c-2.42 0-4.39 1.97-4.39 4.39s1.97 4.38 4.39 4.38 4.38-1.96 4.38-4.38-1.96-4.39-4.38-4.39z"/>
      <path d="M16 13.15A2.84 2.84 0 0 1 18.84 16c0 1.57-1.27 2.84-2.84 2.84A2.84 2.84 0 0 1 13.15 16c0-1.58 1.27-2.85 2.85-2.85z"/>
    </symbol>
  </defs>
</svg>
