<svg width="95.615234" height="46.695312" viewBox="0 0 95.6152 46.6953" fill="none" xmlns="http://www.w3.org/2000/svg" xmlns:xlink="http://www.w3.org/1999/xlink">
	<desc>
			Created with Pixso.
	</desc>
	<defs/>
	<path id="logo" d="M12.33 4.6L10.29 4.6C10.08 2.88 8.48 1.87 6.37 1.87C4.05 1.87 2.51 3.1 2.51 4.77C2.51 6.65 4.59 7.33 5.89 7.66L7.66 8.15C9.47 8.62 12.58 9.68 12.58 12.95C12.58 15.78 10.29 18 6.26 18C2.51 18 0.2 16.06 0 13.19L2.17 13.19C2.34 15.16 4.18 16.09 6.26 16.09C8.68 16.09 10.53 14.83 10.53 12.91C10.53 11.18 8.89 10.53 7.05 10.02L4.91 9.41C2.17 8.62 0.47 7.23 0.47 4.87C0.47 1.94 3.09 0 6.43 0C9.81 0 12.24 1.96 12.33 4.6ZM40.83 0C45.3 0 48.54 3.44 48.54 8.97C48.54 14.49 45.3 17.93 40.83 17.93C36.37 17.93 33.13 14.49 33.13 8.97C33.13 3.44 36.37 0 40.83 0ZM18.16 17.69L16.05 17.69L16.05 0.24L18.16 0.24L18.16 8.01L27.47 8.01L27.47 0.24L29.59 0.24L29.59 17.69L27.47 17.69L27.47 9.89L18.16 9.89L18.16 17.69ZM54.2 17.69L52.09 17.69L52.09 0.24L57.98 0.24C62.08 0.24 63.92 2.67 63.92 5.76C63.92 8.84 62.08 11.32 58.02 11.32L54.2 11.32L54.2 17.69ZM40.83 15.95C44 15.95 46.49 13.5 46.49 8.97C46.49 4.43 44 1.98 40.83 1.98C37.66 1.98 35.17 4.43 35.17 8.97C35.17 13.5 37.66 15.95 40.83 15.95ZM54.2 2.11L54.2 9.44L57.95 9.44C60.75 9.44 61.84 7.85 61.84 5.76C61.84 3.66 60.75 2.11 57.92 2.11L54.2 2.11ZM7.61 46.69L0.15 46.69L0.15 29.24L7.14 29.24C10.99 29.24 12.93 31.09 12.93 33.71C12.93 35.76 11.59 37.05 9.78 37.46L9.78 37.63C11.76 37.73 13.61 39.28 13.61 41.87C13.61 44.65 11.53 46.69 7.61 46.69ZM20.31 42.71L19.01 46.69L15.06 46.69L21.09 29.24L25.84 29.24L31.86 46.69L27.9 46.69L26.61 42.71L20.31 42.71ZM37.65 46.69L33.96 46.69L33.96 29.24L37.65 29.24L37.65 36.93L37.88 36.93L44.16 29.24L48.58 29.24L42.1 37.05L48.66 46.69L44.25 46.69L39.46 39.51L37.65 41.73L37.65 46.69ZM62.3 46.69L50.51 46.69L50.51 29.24L62.27 29.24L62.27 32.28L54.2 32.28L54.2 36.44L61.66 36.44L61.66 39.48L54.2 39.48L54.2 43.65L62.3 43.65L62.3 46.69ZM68.9 46.69L65.21 46.69L65.21 29.24L72.09 29.24C76.06 29.24 78.35 31.47 78.35 34.94C78.35 37.32 77.25 39.06 75.26 39.91L78.97 46.69L74.9 46.69L71.59 40.5L68.9 40.5L68.9 46.69ZM85.58 40.52L79.21 29.24L83.35 29.24L87.33 36.75L87.5 36.75L91.47 29.24L95.61 29.24L89.24 40.52L89.24 46.69L85.58 46.69L85.58 40.52ZM3.84 32.22L3.84 36.54L6.58 36.54C8.08 36.54 9.21 35.7 9.21 34.32C9.21 33.06 8.28 32.22 6.64 32.22L3.84 32.22ZM68.9 32.25L68.9 37.54L71.4 37.54C73.52 37.54 74.55 36.66 74.55 34.94C74.55 33.2 73.52 32.25 71.39 32.25L68.9 32.25ZM23.4 33.23L21.25 39.83L25.68 39.83L23.53 33.23L23.4 33.23ZM3.84 39.04L3.84 43.67L6.84 43.67C8.91 43.67 9.8 42.81 9.8 41.5C9.8 40.06 8.7 39.04 6.93 39.04L3.84 39.04Z" fill="#FAF4EA" fill-opacity="1.000000" fill-rule="evenodd"/>
</svg>
